<svg width="196" height="46" viewBox="0 0 196 46" fill="none" xmlns="http://www.w3.org/2000/svg">
<g clip-path="url(#clip0_189_166)">
<mask id="mask0_189_166" style="mask-type:luminance" maskUnits="userSpaceOnUse" x="0" y="10" width="196" height="37">
<path d="M196 10.0001H0V46.0001H196V10.0001Z" fill="white"/>
</mask>
<g mask="url(#mask0_189_166)">
<path d="M60.9942 36.7784C59.4986 38.2057 57.689 38.6982 56.6722 37.5651C56.3538 37.2121 56.0156 36.1836 56.2594 35.6954L57.397 33.4118C58.5214 31.1565 58.5477 28.8097 56.7711 26.8594C54.0874 23.9112 49.6666 23.9264 51.2214 20.8997C52.1175 19.1543 53.0354 17.3806 53.5933 15.4805C54.3246 12.9942 55.3897 10.2725 57.8516 10.7301C58.5653 10.8631 59.5557 11.7107 59.7578 12.5496C60.2168 14.4498 61.0337 15.7267 62.7775 16.6789C64.2906 17.5048 65.9509 18.8166 66.7525 20.44C68.0284 23.0199 67.9054 26.234 66.77 28.8184C66.1463 30.2369 65.101 31.3635 64.306 32.6535C63.3528 34.1963 62.3053 35.5255 60.992 36.7784H60.9942Z" fill="white"/>
<path d="M41.621 45.7408C39.2996 45.6341 36.2844 46.2769 31.2662 45.852C29.114 45.6689 26.9157 45.7256 24.7591 45.7539C22.6969 45.78 21.4759 44.3092 21.4803 42.3916L21.4869 38.8964C21.4934 35.6192 23.6237 35.4405 25.6244 33.8018C25.5519 33.0021 24.904 32.3942 24.4341 31.8211L23.1427 30.2478C21.511 28.2605 20.828 25.6195 21.6823 23.1027L23.6149 17.4023C23.9531 16.4022 24.4472 15.4172 24.9282 14.4323C25.6529 12.9549 26.3293 11.264 27.7985 10.3444C29.0942 9.53164 30.8951 10.2769 31.9009 11.2967C33.6578 13.0769 35.586 14.1294 37.8919 14.9923L41.3552 16.2889C42.965 16.8925 44.3354 17.6813 45.4466 18.9865L46.7313 20.4966C47.8602 21.8236 48.0798 23.0962 47.6867 24.7697L47.3287 26.2928L47.2848 39.487C46.6852 43.2088 45.4817 45.9151 41.621 45.7386V45.7408ZM40.9994 33.4031C41.9789 31.5749 41.946 29.0733 40.8457 27.2712C40.11 26.0641 38.5991 25.5825 37.3231 25.2622L32.8408 24.1356C32.5268 24.0572 31.6527 24.2729 31.5561 24.5758C31.4726 24.8351 31.723 25.4408 31.9734 25.6239C34.4879 27.4499 34.1497 30.3502 32.3621 32.7973C30.8709 34.8369 39.2689 36.6346 40.9994 33.4031Z" fill="white"/>
<path d="M11.2001 45.0566C9.676 44.6339 9.72431 42.3787 9.01935 40.3391C8.54938 38.9793 7.93227 37.7024 7.88615 36.2359L7.71266 30.6357C7.67093 29.2716 6.93962 27.7551 5.8745 26.9205C3.73327 25.2448 -0.180226 24.5213 0.00644505 21.4706C0.160174 18.9669 1.98955 17.1104 2.63082 14.2471C2.88118 13.1249 3.14032 12.0506 3.81014 11.1136C4.21642 10.5471 6.8386 10.1614 7.46889 11.569C8.45275 13.7633 8.34514 15.0687 11.7206 16.6115C14.1934 17.7424 16.6136 19.9475 16.8112 22.8347C17.0111 25.7394 16.9891 28.6462 16.7893 31.4877C16.6707 33.1612 15.9042 34.7258 15.5177 36.2948C14.6963 39.62 16.0206 43.0629 13.3413 44.7429C12.7198 45.133 11.8985 45.2505 11.1979 45.0566H11.2001Z" fill="white"/>
<path d="M158.182 27.8683C155.463 25.3886 150.348 25.1249 148.325 26.9422C147.034 28.1015 147.161 29.7227 146.966 31.2524C146.621 33.9696 145.15 36.4298 145.637 38.2101L146.718 42.1672C147.139 43.7078 145.879 45.6232 144.267 45.6733L141.436 45.7605C140.489 45.791 139.613 45.4292 139.06 44.8583C138.339 44.1175 138.245 43.2262 138.219 42.1498C138.155 39.4347 137.85 36.6455 138.625 34.0132L139.802 30.0147C140.933 26.173 136.76 25.7568 136.387 24.2489C135.968 22.5536 136.587 21.0893 137.215 19.5988C138.034 17.6595 138.111 15.5785 138.381 13.5389C138.607 11.8349 140.112 10.5449 141.805 10.7497C143.733 10.9829 144.225 14.9771 147.302 15.0403L156.947 15.2364C159.168 15.2822 161.061 15.9359 162.824 17.2803C164.047 18.213 164.722 19.6533 165.275 21.0937L166.318 23.8044C166.619 24.5845 167.302 25.5999 167.298 26.4519L167.273 31.0868C167.262 33.2898 165.31 36.0092 165.644 40.4414C165.743 41.7445 165.598 43.2306 164.91 44.307C164.328 45.2157 163.281 45.6711 162.288 45.4815C161.535 45.3377 160.411 44.538 160.307 43.6119L160.044 41.2694L159.908 30.8798C159.892 29.7358 159.001 28.6048 158.188 27.8661L158.182 27.8683Z" fill="white"/>
<path d="M190.404 33.3748C190.36 31.5727 189.919 30.2064 188.856 28.8598C187.747 27.4521 186.168 25.9616 184.176 25.9181L175.042 25.722L172.828 25.4735C172.418 25.4278 171.717 25.0377 171.241 24.7697C171.019 23.1311 171.552 21.7801 171.726 20.1436L171.957 17.9428C172.15 16.0971 173.366 12.5257 174.385 11.2596C174.992 10.5057 176.298 10.2616 177.135 10.497C178.101 10.7672 178.74 11.4688 179.256 12.4603C179.972 13.8353 181.167 14.9662 182.821 15.0403L187.259 15.2386C189.73 15.3497 192.196 16.0819 193.933 17.9646C195.064 19.1892 195.936 21.0828 195.943 22.863L196 42.1323C196.004 43.8342 194.823 45.6776 192.927 45.5164C192.058 45.4423 190.758 44.562 190.714 43.3853L190.52 38.1774L190.402 33.3726L190.404 33.3748Z" fill="white"/>
<path d="M99.2059 45.8236C96.7638 45.6733 94.4337 45.8149 92.0926 45.8084L89.6747 45.8018C88.7655 45.7997 87.7179 45.7234 87.0196 45.1982C86.4508 44.7712 85.7612 43.7056 85.871 42.7534C86.1236 40.5678 86.8373 38.2667 88.0627 36.4102C88.7282 35.4013 90.3357 35.3228 91.414 35.3141L101.868 35.2313C103.205 35.2204 104.529 34.4316 105.131 33.5948C105.996 32.3942 106.086 30.9211 105.401 29.5614C102.728 24.2663 95.8546 26.2754 91.6732 25.7285L89.9668 25.5062C88.2384 25.2796 87.5642 24.1073 87.5005 22.5645C87.4215 20.6164 87.6806 18.9538 88.4383 17.1823C89.4639 14.7788 90.1952 10.2355 93.1094 10.972C94.7499 11.386 95.2616 14.8986 98.1913 15.0294L102.983 15.2429C106.08 15.3802 109.778 17.0581 109.785 19.771L109.807 26.9161C109.813 29.2411 109.602 31.54 109.932 33.7735C110.165 35.3555 111.201 36.3709 112.106 37.5171C113.287 39.0141 113.384 41.1518 113.068 42.9277C112.804 44.4182 111.823 45.6558 110.226 45.7016L104.648 45.8585C102.843 45.9086 101.141 45.9457 99.2037 45.8258L99.2059 45.8236Z" fill="white"/>
<path d="M129.384 44.3311C128.791 45.2245 127.913 45.6647 126.901 45.5122C126.138 45.3967 124.955 44.671 124.827 43.6774L124.518 41.2478L124.388 34.094C124.36 32.464 123.356 30.8886 122.723 29.4809C120.894 25.4017 117.429 25.9095 115.558 23.5474C114.62 22.3642 114.637 21.0872 115.222 19.8081L117.279 15.2975C117.901 13.9334 118.478 10.3685 121.294 10.9329C123.128 11.299 122.289 14.7266 126.349 16.4589C130.41 18.1913 132.821 22.0482 132.182 26.5087L131.879 28.6289C131.831 31.0934 131.589 33.157 130.695 35.4428C129.433 38.6656 130.884 42.0693 129.382 44.3333L129.384 44.3311Z" fill="white"/>
</g>
<path d="M122 8C124.209 8 126 6.20914 126 4C126 1.79086 124.209 0 122 0C119.791 0 118 1.79086 118 4C118 6.20914 119.791 8 122 8Z" fill="white"/>
<path d="M6 8C8.20914 8 10 6.20914 10 4C10 1.79086 8.20914 0 6 0C3.79086 0 2 1.79086 2 4C2 6.20914 3.79086 8 6 8Z" fill="white"/>
</g>
<defs>
<clipPath id="clip0_189_166">
<rect width="196" height="46" fill="white"/>
</clipPath>
</defs>
</svg>
